<svg width="24" height="24" viewBox="0 0 24 24" fill="none" xmlns="http://www.w3.org/2000/svg">
<path d="M4 22H5V9H4C3.46957 9 2.96086 9.21071 2.58579 9.58579C2.21071 9.96086 2 10.4696 2 11V20C2 20.5304 2.21071 21.0391 2.58579 21.4142C2.96086 21.7893 3.46957 22 4 22ZM20 9H13L14.122 5.632C14.2221 5.33141 14.2494 5.01135 14.2016 4.69815C14.1538 4.38496 14.0322 4.08761 13.847 3.83059C13.6617 3.57358 13.4181 3.36424 13.1361 3.21984C12.8541 3.07543 12.5418 3.00008 12.225 3H12L7 8.438V22H15.4256C16.9936 22 18.4169 21.084 19.0663 19.6569L21.912 13.404L22 13V11C22 10.4696 21.7893 9.96086 21.4142 9.58579C21.0391 9.21071 20.5304 9 20 9Z" fill="#159F6D"/>
</svg>
