<svg width="40" height="40" viewBox="0 0 40 40" fill="none" xmlns="http://www.w3.org/2000/svg">
<g id="carbon:email">
<path id="Vector" d="M34.625 7.8042H5.375C4.72853 7.8042 4.10855 8.06101 3.65143 8.51813C3.19431 8.97525 2.9375 9.59523 2.9375 10.2417V29.7417C2.9375 30.3882 3.19431 31.0082 3.65143 31.4653C4.10855 31.9224 4.72853 32.1792 5.375 32.1792H34.625C35.2715 32.1792 35.8915 31.9224 36.3486 31.4653C36.8057 31.0082 37.0625 30.3882 37.0625 29.7417V10.2417C37.0625 9.59523 36.8057 8.97525 36.3486 8.51813C35.8915 8.06101 35.2715 7.8042 34.625 7.8042ZM31.9437 10.2417L20 18.5048L8.05625 10.2417H31.9437ZM5.375 29.7417V11.3508L19.3053 20.9911C19.5093 21.1326 19.7517 21.2084 20 21.2084C20.2483 21.2084 20.4907 21.1326 20.6947 20.9911L34.625 11.3508V29.7417H5.375Z" fill="#EBEDEE"/>
</g>
</svg>
