<svg width="49" height="49" viewBox="0 0 49 49" fill="none" xmlns="http://www.w3.org/2000/svg">
<g id="fluent:phone-48-regular">
<path id="Vector" d="M16.75 4.4917C15.6228 4.4917 14.5418 4.93947 13.7448 5.7365C12.9478 6.53352 12.5 7.61453 12.5 8.7417V40.2417C12.5 41.3689 12.9478 42.4499 13.7448 43.2469C14.5418 44.0439 15.6228 44.4917 16.75 44.4917H32.25C33.3772 44.4917 34.4582 44.0439 35.2552 43.2469C36.0522 42.4499 36.5 41.3689 36.5 40.2417V8.7417C36.5 7.61453 36.0522 6.53352 35.2552 5.7365C34.4582 4.93947 33.3772 4.4917 32.25 4.4917H16.75ZM15 8.7417C15 7.7757 15.784 6.9917 16.75 6.9917H32.25C33.217 6.9917 34 7.7757 34 8.7417V40.2417C34 40.7058 33.8156 41.1509 33.4874 41.4791C33.1593 41.8073 32.7141 41.9917 32.25 41.9917H16.75C16.2859 41.9917 15.8408 41.8073 15.5126 41.4791C15.1844 41.1509 15 40.7058 15 40.2417V8.7417ZM21.75 35.9917C21.4185 35.9917 21.1005 36.1234 20.8661 36.3578C20.6317 36.5922 20.5 36.9102 20.5 37.2417C20.5 37.5732 20.6317 37.8912 20.8661 38.1256C21.1005 38.36 21.4185 38.4917 21.75 38.4917H27.25C27.5815 38.4917 27.8995 38.36 28.1339 38.1256C28.3683 37.8912 28.5 37.5732 28.5 37.2417C28.5 36.9102 28.3683 36.5922 28.1339 36.3578C27.8995 36.1234 27.5815 35.9917 27.25 35.9917H21.75Z" fill="#EBEDEE"/>
</g>
</svg>
