<svg width="21" height="22" viewBox="0 0 21 22" fill="none" xmlns="http://www.w3.org/2000/svg">
<path id="Vector" d="M16.2165 15.46L20.4995 19.742L19.0845 21.157L14.8025 16.874C13.2093 18.1512 11.2275 18.8459 9.18555 18.843C4.21755 18.843 0.185547 14.811 0.185547 9.84302C0.185547 4.87502 4.21755 0.843018 9.18555 0.843018C14.1535 0.843018 18.1855 4.87502 18.1855 9.84302C18.1885 11.885 17.4938 13.8668 16.2165 15.46ZM14.2105 14.718C15.4797 13.4129 16.1884 11.6634 16.1855 9.84302C16.1855 5.97602 13.0525 2.84302 9.18555 2.84302C5.31855 2.84302 2.18555 5.97602 2.18555 9.84302C2.18555 13.71 5.31855 16.843 9.18555 16.843C11.006 16.8459 12.7554 16.1371 14.0605 14.868L14.2105 14.718Z" fill="#15499F"/>
</svg>
