<svg width="41" height="41" viewBox="0 0 41 41" fill="none" xmlns="http://www.w3.org/2000/svg">
<g id="socials">
<rect id="Rectangle 1" x="0.5" y="0.491699" width="40" height="40" rx="4" fill="#15499F"/>
<path id="Vector" d="M31.1 15.3917C30.4 15.6917 29.6 15.8917 28.8 15.9917C29.6 15.4917 30.3 14.6917 30.6 13.7917C29.8 14.2917 29 14.5917 28 14.7917C27.3 13.9917 26.2 13.4917 25.1 13.4917C22.9 13.4917 21.1 15.2917 21.1 17.4917C21.1 17.7917 21.1 18.0917 21.2 18.3917C17.9 18.1917 14.9 16.5917 12.9 14.1917C12.6 14.7917 12.4 15.4917 12.4 16.1917C12.4 17.5917 13.1 18.7917 14.2 19.4917C13.5 19.4917 12.9 19.2917 12.4 18.9917C12.4 20.8917 13.8 22.5917 15.6 22.8917C15.3 22.9917 14.9 22.9917 14.5 22.9917C14.2 22.9917 14 22.9917 13.7 22.8917C14.2 24.4917 15.7 25.6917 17.5 25.6917C16.1 26.7917 14.4 27.3917 12.5 27.3917C12.2 27.3917 11.9 27.3917 11.5 27.2917C13.3 28.3917 15.4 29.0917 17.7 29.0917C25.1 29.0917 29.1 22.9917 29.1 17.6917V17.1917C29.9 16.8917 30.6 16.1917 31.1 15.3917Z" fill="#FEFEFE"/>
</g>
</svg>
