<svg width="41" height="41" viewBox="0 0 41 41" fill="none" xmlns="http://www.w3.org/2000/svg">
<g id="socials">
<rect id="Rectangle 1" x="0.5" y="0.491699" width="40" height="40" rx="4" fill="#15499F"/>
<path id="Vector" d="M21.4825 27.4917C13.966 27.4917 9.67864 22.2364 9.5 13.4917H13.2651C13.3888 19.9101 16.1646 22.6288 18.3632 23.1894V13.4917H21.9085V19.0272C24.0796 18.789 26.3607 16.2665 27.1302 13.4917H30.6755C30.3855 14.9308 29.8075 16.2934 28.9776 17.4942C28.1477 18.695 27.0837 19.7083 25.8523 20.4707C27.2269 21.1673 28.441 22.1532 29.4145 23.3634C30.388 24.5737 31.0988 25.9807 31.5 27.4917H27.5974C27.2373 26.1793 26.5054 25.0045 25.4934 24.1145C24.4814 23.2245 23.2343 22.659 21.9085 22.4887V27.4917H21.4825Z" fill="#FEFEFE"/>
</g>
</svg>
