<svg width="24" height="24" viewBox="0 0 24 24" fill="none" xmlns="http://www.w3.org/2000/svg">
<path d="M6.283 10.587C5.428 11.173 5 12.143 5 13.496C5 15.526 7.4875 18.996 9.731 18.996H15.471C17.6655 18.996 19 17.071 19 15.526V9.00098C19 8.60315 18.842 8.22162 18.5607 7.94032C18.2794 7.65901 17.8978 7.50098 17.5 7.50098H17.495C17.0985 7.50098 16.7182 7.65848 16.4379 7.93885C16.1575 8.21922 16 8.59948 16 8.99598" fill="#E2A124"/>
<path d="M6 20.4961L6 21.4961C6 22.0265 6.21071 22.5352 6.58579 22.9103C6.96086 23.2854 7.46957 23.4961 8 23.4961L17 23.4961C17.5304 23.4961 18.0391 23.2854 18.4142 22.9103C18.7893 22.5352 19 22.0265 19 21.4961L19 20.4961L6 20.4961Z" fill="#E2A124"/>
<path d="M6.99023 11.7185V1.49851C6.9903 1.30136 7.02925 1.10616 7.10486 0.924091C7.18048 0.742021 7.29126 0.576653 7.43087 0.437459C7.57048 0.298265 7.73618 0.187977 7.91848 0.112912C8.10078 0.0378473 8.29609 -0.000520748 8.49323 5.33758e-06C8.89231 0.00106457 9.27467 0.160373 9.55644 0.442984C9.8382 0.725595 9.99637 1.10843 9.99623 1.50751L10 9.99609" fill="#E2A124"/>
<path d="M9.99609 9.99609V7.00433C10.0062 6.61123 10.1695 6.23764 10.4511 5.9632C10.7327 5.68875 11.1104 5.53516 11.5036 5.53516C11.8968 5.53516 12.2745 5.68875 12.5561 5.9632C12.8377 6.23764 13.001 6.61123 13.0111 7.00433V9.99609" fill="#E2A124"/>
<path d="M13 9.49609V7.49707C13 7.09925 13.158 6.71771 13.4393 6.43641C13.7206 6.15511 14.1022 5.99707 14.5 5.99707C14.8978 5.99707 15.2794 6.15511 15.5607 6.43641C15.842 6.71771 16 7.09925 16 7.49707V9.63959" fill="#E2A124"/>
</svg>
